<mxfile host="Electron" modified="2024-01-03T09:52:18.851Z" agent="Mozilla/5.0 (Windows NT 10.0; Win64; x64) AppleWebKit/537.36 (KHTML, like Gecko) draw.io/22.1.16 Chrome/120.0.6099.109 Electron/28.1.0 Safari/537.36" etag="BPjG11xZoUWG-RWtG4YE" version="22.1.16" type="device">
  <diagram name="페이지-1" id="Gcc-xkVWNxIO55lsaenb">
    <mxGraphModel dx="599" dy="394" grid="0" gridSize="10" guides="1" tooltips="1" connect="1" arrows="1" fold="1" page="1" pageScale="1" pageWidth="1169" pageHeight="827" math="0" shadow="0">
      <root>
        <mxCell id="0" />
        <mxCell id="1" parent="0" />
        <mxCell id="vcLzqb1B1sTBKDjQmZa7-1" value="" style="rounded=1;absoluteArcSize=1;html=1;arcSize=10;" vertex="1" parent="1">
          <mxGeometry x="240" y="160" width="640" height="40" as="geometry" />
        </mxCell>
        <mxCell id="vcLzqb1B1sTBKDjQmZa7-2" value="&lt;b&gt;ZipList&lt;/b&gt;" style="html=1;shape=mxgraph.er.anchor;whiteSpace=wrap;" vertex="1" parent="vcLzqb1B1sTBKDjQmZa7-1">
          <mxGeometry width="80" height="40" as="geometry" />
        </mxCell>
        <mxCell id="vcLzqb1B1sTBKDjQmZa7-3" value="zlbytes" style="rounded=1;absoluteArcSize=1;html=1;arcSize=10;whiteSpace=wrap;points=[];strokeColor=#d6b656;fillColor=#fff2cc;" vertex="1" parent="vcLzqb1B1sTBKDjQmZa7-1">
          <mxGeometry x="80" y="2" width="80" height="36" as="geometry" />
        </mxCell>
        <mxCell id="vcLzqb1B1sTBKDjQmZa7-4" value="zltail" style="rounded=1;absoluteArcSize=1;html=1;arcSize=10;whiteSpace=wrap;points=[];strokeColor=#6c8ebf;fillColor=#dae8fc;" vertex="1" parent="vcLzqb1B1sTBKDjQmZa7-1">
          <mxGeometry x="160" y="2" width="80" height="36" as="geometry" />
        </mxCell>
        <mxCell id="vcLzqb1B1sTBKDjQmZa7-5" value="zllen" style="rounded=1;absoluteArcSize=1;html=1;arcSize=10;whiteSpace=wrap;points=[];strokeColor=#d6b656;fillColor=#fff2cc;" vertex="1" parent="vcLzqb1B1sTBKDjQmZa7-1">
          <mxGeometry x="240" y="2" width="80" height="36" as="geometry" />
        </mxCell>
        <mxCell id="vcLzqb1B1sTBKDjQmZa7-6" value="entry 1" style="rounded=1;absoluteArcSize=1;html=1;arcSize=10;whiteSpace=wrap;points=[];strokeColor=#666666;fillColor=#f5f5f5;fontColor=#333333;" vertex="1" parent="vcLzqb1B1sTBKDjQmZa7-1">
          <mxGeometry x="320" y="2" width="80" height="36" as="geometry" />
        </mxCell>
        <mxCell id="vcLzqb1B1sTBKDjQmZa7-7" value="entry 2" style="rounded=1;absoluteArcSize=1;html=1;arcSize=10;whiteSpace=wrap;points=[];strokeColor=#666666;fillColor=#f5f5f5;fontColor=#333333;" vertex="1" parent="vcLzqb1B1sTBKDjQmZa7-1">
          <mxGeometry x="400" y="2" width="80" height="36" as="geometry" />
        </mxCell>
        <mxCell id="vcLzqb1B1sTBKDjQmZa7-8" value="entry 3" style="rounded=1;absoluteArcSize=1;html=1;arcSize=10;whiteSpace=wrap;points=[];strokeColor=#666666;fillColor=#f5f5f5;fontColor=#333333;" vertex="1" parent="vcLzqb1B1sTBKDjQmZa7-1">
          <mxGeometry x="480" y="2" width="80" height="36" as="geometry" />
        </mxCell>
        <mxCell id="vcLzqb1B1sTBKDjQmZa7-9" value="zlend" style="rounded=1;absoluteArcSize=1;html=1;arcSize=10;whiteSpace=wrap;points=[];strokeColor=#6c8ebf;fillColor=#dae8fc;" vertex="1" parent="vcLzqb1B1sTBKDjQmZa7-1">
          <mxGeometry x="560" y="2" width="80" height="36" as="geometry" />
        </mxCell>
        <mxCell id="vcLzqb1B1sTBKDjQmZa7-10" value="" style="rounded=1;absoluteArcSize=1;html=1;arcSize=10;" vertex="1" parent="1">
          <mxGeometry x="240" y="240" width="320" height="40" as="geometry" />
        </mxCell>
        <mxCell id="vcLzqb1B1sTBKDjQmZa7-11" value="&lt;b&gt;Entry&lt;/b&gt;" style="html=1;shape=mxgraph.er.anchor;whiteSpace=wrap;" vertex="1" parent="vcLzqb1B1sTBKDjQmZa7-10">
          <mxGeometry width="80" height="40" as="geometry" />
        </mxCell>
        <mxCell id="vcLzqb1B1sTBKDjQmZa7-12" value="prevlen" style="rounded=1;absoluteArcSize=1;html=1;arcSize=10;whiteSpace=wrap;points=[];strokeColor=#6c8ebf;fillColor=#dae8fc;" vertex="1" parent="vcLzqb1B1sTBKDjQmZa7-10">
          <mxGeometry x="80" y="2" width="80" height="36" as="geometry" />
        </mxCell>
        <mxCell id="vcLzqb1B1sTBKDjQmZa7-13" value="itselflen" style="rounded=1;absoluteArcSize=1;html=1;arcSize=10;whiteSpace=wrap;points=[];strokeColor=#6c8ebf;fillColor=#dae8fc;" vertex="1" parent="vcLzqb1B1sTBKDjQmZa7-10">
          <mxGeometry x="160" y="2" width="80" height="36" as="geometry" />
        </mxCell>
        <mxCell id="vcLzqb1B1sTBKDjQmZa7-14" value="value" style="rounded=1;absoluteArcSize=1;html=1;arcSize=10;whiteSpace=wrap;points=[];strokeColor=#666666;fillColor=#f5f5f5;fontColor=#333333;" vertex="1" parent="vcLzqb1B1sTBKDjQmZa7-10">
          <mxGeometry x="240" y="2" width="80" height="36" as="geometry" />
        </mxCell>
        <mxCell id="vcLzqb1B1sTBKDjQmZa7-15" value="&lt;font color=&quot;#ffffff&quot;&gt;p&lt;/font&gt;" style="text;html=1;strokeColor=#10739e;fillColor=#b1ddf0;align=center;verticalAlign=middle;whiteSpace=wrap;rounded=0;" vertex="1" parent="1">
          <mxGeometry x="240" y="320" width="20" height="40" as="geometry" />
        </mxCell>
        <mxCell id="vcLzqb1B1sTBKDjQmZa7-16" value="&lt;font color=&quot;#ffffff&quot;&gt;p&lt;/font&gt;" style="text;html=1;strokeColor=#10739e;fillColor=#b1ddf0;align=center;verticalAlign=middle;whiteSpace=wrap;rounded=0;" vertex="1" parent="1">
          <mxGeometry x="260" y="320" width="20" height="40" as="geometry" />
        </mxCell>
        <mxCell id="vcLzqb1B1sTBKDjQmZa7-17" value="&lt;font color=&quot;#ffffff&quot;&gt;p&lt;/font&gt;" style="text;html=1;strokeColor=#10739e;fillColor=#b1ddf0;align=center;verticalAlign=middle;whiteSpace=wrap;rounded=0;" vertex="1" parent="1">
          <mxGeometry x="280" y="320" width="20" height="40" as="geometry" />
        </mxCell>
        <mxCell id="vcLzqb1B1sTBKDjQmZa7-18" value="&lt;font color=&quot;#ffffff&quot;&gt;p&lt;/font&gt;" style="text;html=1;strokeColor=#10739e;fillColor=#b1ddf0;align=center;verticalAlign=middle;whiteSpace=wrap;rounded=0;" vertex="1" parent="1">
          <mxGeometry x="300" y="320" width="20" height="40" as="geometry" />
        </mxCell>
        <mxCell id="vcLzqb1B1sTBKDjQmZa7-19" value="&lt;font color=&quot;#ffffff&quot;&gt;p&lt;/font&gt;" style="text;html=1;strokeColor=#10739e;fillColor=#b1ddf0;align=center;verticalAlign=middle;whiteSpace=wrap;rounded=0;" vertex="1" parent="1">
          <mxGeometry x="320" y="320" width="20" height="40" as="geometry" />
        </mxCell>
        <mxCell id="vcLzqb1B1sTBKDjQmZa7-20" value="&lt;font color=&quot;#ffffff&quot;&gt;p&lt;/font&gt;" style="text;html=1;strokeColor=#10739e;fillColor=#b1ddf0;align=center;verticalAlign=middle;whiteSpace=wrap;rounded=0;" vertex="1" parent="1">
          <mxGeometry x="340" y="320" width="20" height="40" as="geometry" />
        </mxCell>
        <mxCell id="vcLzqb1B1sTBKDjQmZa7-21" value="&lt;font color=&quot;#ffffff&quot;&gt;p&lt;/font&gt;" style="text;html=1;strokeColor=#10739e;fillColor=#b1ddf0;align=center;verticalAlign=middle;whiteSpace=wrap;rounded=0;" vertex="1" parent="1">
          <mxGeometry x="360" y="320" width="20" height="40" as="geometry" />
        </mxCell>
        <mxCell id="vcLzqb1B1sTBKDjQmZa7-22" value="&lt;font color=&quot;#ffffff&quot;&gt;p&lt;/font&gt;" style="text;html=1;strokeColor=#10739e;fillColor=#b1ddf0;align=center;verticalAlign=middle;whiteSpace=wrap;rounded=0;" vertex="1" parent="1">
          <mxGeometry x="380" y="320" width="20" height="40" as="geometry" />
        </mxCell>
        <mxCell id="vcLzqb1B1sTBKDjQmZa7-23" value="" style="endArrow=classic;startArrow=classic;html=1;rounded=0;" edge="1" parent="1">
          <mxGeometry width="50" height="50" relative="1" as="geometry">
            <mxPoint x="240" y="370" as="sourcePoint" />
            <mxPoint x="400" y="370" as="targetPoint" />
          </mxGeometry>
        </mxCell>
        <mxCell id="vcLzqb1B1sTBKDjQmZa7-24" value="prevlen" style="edgeLabel;html=1;align=center;verticalAlign=middle;resizable=0;points=[];" vertex="1" connectable="0" parent="vcLzqb1B1sTBKDjQmZa7-23">
          <mxGeometry y="-1" relative="1" as="geometry">
            <mxPoint as="offset" />
          </mxGeometry>
        </mxCell>
        <mxCell id="vcLzqb1B1sTBKDjQmZa7-25" value="&lt;font color=&quot;#ffffff&quot;&gt;1&lt;/font&gt;" style="text;html=1;strokeColor=#10739e;fillColor=#b1ddf0;align=center;verticalAlign=middle;whiteSpace=wrap;rounded=0;" vertex="1" parent="1">
          <mxGeometry x="240" y="400" width="20" height="40" as="geometry" />
        </mxCell>
        <mxCell id="vcLzqb1B1sTBKDjQmZa7-26" value="&lt;font color=&quot;#ffffff&quot;&gt;1&lt;/font&gt;" style="text;html=1;strokeColor=#10739e;fillColor=#b1ddf0;align=center;verticalAlign=middle;whiteSpace=wrap;rounded=0;" vertex="1" parent="1">
          <mxGeometry x="260" y="400" width="20" height="40" as="geometry" />
        </mxCell>
        <mxCell id="vcLzqb1B1sTBKDjQmZa7-27" value="&lt;font color=&quot;#ffffff&quot;&gt;1&lt;/font&gt;" style="text;html=1;strokeColor=#10739e;fillColor=#b1ddf0;align=center;verticalAlign=middle;whiteSpace=wrap;rounded=0;" vertex="1" parent="1">
          <mxGeometry x="280" y="400" width="20" height="40" as="geometry" />
        </mxCell>
        <mxCell id="vcLzqb1B1sTBKDjQmZa7-28" value="&lt;font color=&quot;#ffffff&quot;&gt;1&lt;/font&gt;" style="text;html=1;strokeColor=#10739e;fillColor=#b1ddf0;align=center;verticalAlign=middle;whiteSpace=wrap;rounded=0;" vertex="1" parent="1">
          <mxGeometry x="300" y="400" width="20" height="40" as="geometry" />
        </mxCell>
        <mxCell id="vcLzqb1B1sTBKDjQmZa7-29" value="&lt;font color=&quot;#ffffff&quot;&gt;1&lt;/font&gt;" style="text;html=1;strokeColor=#10739e;fillColor=#b1ddf0;align=center;verticalAlign=middle;whiteSpace=wrap;rounded=0;" vertex="1" parent="1">
          <mxGeometry x="320" y="400" width="20" height="40" as="geometry" />
        </mxCell>
        <mxCell id="vcLzqb1B1sTBKDjQmZa7-30" value="&lt;font color=&quot;#ffffff&quot;&gt;1&lt;/font&gt;" style="text;html=1;strokeColor=#10739e;fillColor=#b1ddf0;align=center;verticalAlign=middle;whiteSpace=wrap;rounded=0;" vertex="1" parent="1">
          <mxGeometry x="340" y="400" width="20" height="40" as="geometry" />
        </mxCell>
        <mxCell id="vcLzqb1B1sTBKDjQmZa7-31" value="&lt;font color=&quot;#ffffff&quot;&gt;1&lt;/font&gt;" style="text;html=1;strokeColor=#10739e;fillColor=#b1ddf0;align=center;verticalAlign=middle;whiteSpace=wrap;rounded=0;" vertex="1" parent="1">
          <mxGeometry x="360" y="400" width="20" height="40" as="geometry" />
        </mxCell>
        <mxCell id="vcLzqb1B1sTBKDjQmZa7-32" value="&lt;font color=&quot;#ffffff&quot;&gt;0&lt;/font&gt;" style="text;html=1;strokeColor=#10739e;fillColor=#b1ddf0;align=center;verticalAlign=middle;whiteSpace=wrap;rounded=0;" vertex="1" parent="1">
          <mxGeometry x="380" y="400" width="20" height="40" as="geometry" />
        </mxCell>
        <mxCell id="vcLzqb1B1sTBKDjQmZa7-33" value="" style="endArrow=classic;startArrow=classic;html=1;rounded=0;" edge="1" parent="1">
          <mxGeometry width="50" height="50" relative="1" as="geometry">
            <mxPoint x="240" y="450" as="sourcePoint" />
            <mxPoint x="400" y="450" as="targetPoint" />
          </mxGeometry>
        </mxCell>
        <mxCell id="vcLzqb1B1sTBKDjQmZa7-34" value="sign byte(ZIP_BIGLEN)" style="edgeLabel;html=1;align=center;verticalAlign=middle;resizable=0;points=[];" vertex="1" connectable="0" parent="vcLzqb1B1sTBKDjQmZa7-33">
          <mxGeometry y="-1" relative="1" as="geometry">
            <mxPoint as="offset" />
          </mxGeometry>
        </mxCell>
        <mxCell id="vcLzqb1B1sTBKDjQmZa7-35" value="&lt;font color=&quot;#ffffff&quot;&gt;q&lt;/font&gt;" style="text;html=1;strokeColor=#b46504;fillColor=#fad7ac;align=center;verticalAlign=middle;whiteSpace=wrap;rounded=0;" vertex="1" parent="1">
          <mxGeometry x="400" y="400" width="20" height="40" as="geometry" />
        </mxCell>
        <mxCell id="vcLzqb1B1sTBKDjQmZa7-36" value="&lt;font color=&quot;#ffffff&quot;&gt;q&lt;/font&gt;" style="text;html=1;strokeColor=#b46504;fillColor=#fad7ac;align=center;verticalAlign=middle;whiteSpace=wrap;rounded=0;" vertex="1" parent="1">
          <mxGeometry x="420" y="400" width="20" height="40" as="geometry" />
        </mxCell>
        <mxCell id="vcLzqb1B1sTBKDjQmZa7-37" value="&lt;font color=&quot;#ffffff&quot;&gt;q&lt;/font&gt;" style="text;html=1;strokeColor=#b46504;fillColor=#fad7ac;align=center;verticalAlign=middle;whiteSpace=wrap;rounded=0;" vertex="1" parent="1">
          <mxGeometry x="440" y="400" width="20" height="40" as="geometry" />
        </mxCell>
        <mxCell id="vcLzqb1B1sTBKDjQmZa7-38" value="&lt;font color=&quot;#ffffff&quot;&gt;q&lt;/font&gt;" style="text;html=1;strokeColor=#b46504;fillColor=#fad7ac;align=center;verticalAlign=middle;whiteSpace=wrap;rounded=0;" vertex="1" parent="1">
          <mxGeometry x="460" y="400" width="20" height="40" as="geometry" />
        </mxCell>
        <mxCell id="vcLzqb1B1sTBKDjQmZa7-39" value="&lt;font color=&quot;#ffffff&quot;&gt;q&lt;/font&gt;" style="text;html=1;strokeColor=#b46504;fillColor=#fad7ac;align=center;verticalAlign=middle;whiteSpace=wrap;rounded=0;" vertex="1" parent="1">
          <mxGeometry x="480" y="400" width="20" height="40" as="geometry" />
        </mxCell>
        <mxCell id="vcLzqb1B1sTBKDjQmZa7-40" value="&lt;font color=&quot;#ffffff&quot;&gt;q&lt;/font&gt;" style="text;html=1;strokeColor=#b46504;fillColor=#fad7ac;align=center;verticalAlign=middle;whiteSpace=wrap;rounded=0;" vertex="1" parent="1">
          <mxGeometry x="500" y="400" width="20" height="40" as="geometry" />
        </mxCell>
        <mxCell id="vcLzqb1B1sTBKDjQmZa7-41" value="&lt;font color=&quot;#ffffff&quot;&gt;q&lt;/font&gt;" style="text;html=1;strokeColor=#b46504;fillColor=#fad7ac;align=center;verticalAlign=middle;whiteSpace=wrap;rounded=0;" vertex="1" parent="1">
          <mxGeometry x="520" y="400" width="20" height="40" as="geometry" />
        </mxCell>
        <mxCell id="vcLzqb1B1sTBKDjQmZa7-42" value="&lt;font color=&quot;#ffffff&quot;&gt;q&lt;/font&gt;" style="text;html=1;strokeColor=#b46504;fillColor=#fad7ac;align=center;verticalAlign=middle;whiteSpace=wrap;rounded=0;" vertex="1" parent="1">
          <mxGeometry x="540" y="400" width="20" height="40" as="geometry" />
        </mxCell>
        <mxCell id="vcLzqb1B1sTBKDjQmZa7-43" value="&lt;font color=&quot;#ffffff&quot;&gt;r&lt;/font&gt;" style="text;html=1;strokeColor=#0e8088;fillColor=#b0e3e6;align=center;verticalAlign=middle;whiteSpace=wrap;rounded=0;" vertex="1" parent="1">
          <mxGeometry x="560" y="400" width="20" height="40" as="geometry" />
        </mxCell>
        <mxCell id="vcLzqb1B1sTBKDjQmZa7-44" value="&lt;font color=&quot;#ffffff&quot;&gt;r&lt;/font&gt;" style="text;html=1;strokeColor=#0e8088;fillColor=#b0e3e6;align=center;verticalAlign=middle;whiteSpace=wrap;rounded=0;" vertex="1" parent="1">
          <mxGeometry x="580" y="400" width="20" height="40" as="geometry" />
        </mxCell>
        <mxCell id="vcLzqb1B1sTBKDjQmZa7-45" value="&lt;font color=&quot;#ffffff&quot;&gt;r&lt;/font&gt;" style="text;html=1;strokeColor=#0e8088;fillColor=#b0e3e6;align=center;verticalAlign=middle;whiteSpace=wrap;rounded=0;" vertex="1" parent="1">
          <mxGeometry x="600" y="400" width="20" height="40" as="geometry" />
        </mxCell>
        <mxCell id="vcLzqb1B1sTBKDjQmZa7-46" value="&lt;font color=&quot;#ffffff&quot;&gt;r&lt;/font&gt;" style="text;html=1;strokeColor=#0e8088;fillColor=#b0e3e6;align=center;verticalAlign=middle;whiteSpace=wrap;rounded=0;" vertex="1" parent="1">
          <mxGeometry x="620" y="400" width="20" height="40" as="geometry" />
        </mxCell>
        <mxCell id="vcLzqb1B1sTBKDjQmZa7-47" value="&lt;font color=&quot;#ffffff&quot;&gt;r&lt;/font&gt;" style="text;html=1;strokeColor=#0e8088;fillColor=#b0e3e6;align=center;verticalAlign=middle;whiteSpace=wrap;rounded=0;" vertex="1" parent="1">
          <mxGeometry x="640" y="400" width="20" height="40" as="geometry" />
        </mxCell>
        <mxCell id="vcLzqb1B1sTBKDjQmZa7-48" value="&lt;font color=&quot;#ffffff&quot;&gt;r&lt;/font&gt;" style="text;html=1;strokeColor=#0e8088;fillColor=#b0e3e6;align=center;verticalAlign=middle;whiteSpace=wrap;rounded=0;" vertex="1" parent="1">
          <mxGeometry x="660" y="400" width="20" height="40" as="geometry" />
        </mxCell>
        <mxCell id="vcLzqb1B1sTBKDjQmZa7-49" value="&lt;font color=&quot;#ffffff&quot;&gt;r&lt;/font&gt;" style="text;html=1;strokeColor=#0e8088;fillColor=#b0e3e6;align=center;verticalAlign=middle;whiteSpace=wrap;rounded=0;" vertex="1" parent="1">
          <mxGeometry x="680" y="400" width="20" height="40" as="geometry" />
        </mxCell>
        <mxCell id="vcLzqb1B1sTBKDjQmZa7-50" value="&lt;font color=&quot;#ffffff&quot;&gt;r&lt;/font&gt;" style="text;html=1;strokeColor=#0e8088;fillColor=#b0e3e6;align=center;verticalAlign=middle;whiteSpace=wrap;rounded=0;" vertex="1" parent="1">
          <mxGeometry x="700" y="400" width="20" height="40" as="geometry" />
        </mxCell>
        <mxCell id="vcLzqb1B1sTBKDjQmZa7-51" value="&lt;font color=&quot;#ffffff&quot;&gt;s&lt;/font&gt;" style="text;html=1;strokeColor=#ae4132;fillColor=#fad9d5;align=center;verticalAlign=middle;whiteSpace=wrap;rounded=0;" vertex="1" parent="1">
          <mxGeometry x="720" y="400" width="20" height="40" as="geometry" />
        </mxCell>
        <mxCell id="vcLzqb1B1sTBKDjQmZa7-52" value="&lt;font color=&quot;#ffffff&quot;&gt;s&lt;/font&gt;" style="text;html=1;strokeColor=#ae4132;fillColor=#fad9d5;align=center;verticalAlign=middle;whiteSpace=wrap;rounded=0;" vertex="1" parent="1">
          <mxGeometry x="740" y="400" width="20" height="40" as="geometry" />
        </mxCell>
        <mxCell id="vcLzqb1B1sTBKDjQmZa7-53" value="&lt;font color=&quot;#ffffff&quot;&gt;s&lt;/font&gt;" style="text;html=1;strokeColor=#ae4132;fillColor=#fad9d5;align=center;verticalAlign=middle;whiteSpace=wrap;rounded=0;" vertex="1" parent="1">
          <mxGeometry x="760" y="400" width="20" height="40" as="geometry" />
        </mxCell>
        <mxCell id="vcLzqb1B1sTBKDjQmZa7-54" value="&lt;font color=&quot;#ffffff&quot;&gt;s&lt;/font&gt;" style="text;html=1;strokeColor=#ae4132;fillColor=#fad9d5;align=center;verticalAlign=middle;whiteSpace=wrap;rounded=0;" vertex="1" parent="1">
          <mxGeometry x="780" y="400" width="20" height="40" as="geometry" />
        </mxCell>
        <mxCell id="vcLzqb1B1sTBKDjQmZa7-56" value="&lt;font color=&quot;#ffffff&quot;&gt;s&lt;/font&gt;" style="text;html=1;strokeColor=#ae4132;fillColor=#fad9d5;align=center;verticalAlign=middle;whiteSpace=wrap;rounded=0;" vertex="1" parent="1">
          <mxGeometry x="800" y="400" width="20" height="40" as="geometry" />
        </mxCell>
        <mxCell id="vcLzqb1B1sTBKDjQmZa7-57" value="&lt;font color=&quot;#ffffff&quot;&gt;s&lt;/font&gt;" style="text;html=1;strokeColor=#ae4132;fillColor=#fad9d5;align=center;verticalAlign=middle;whiteSpace=wrap;rounded=0;" vertex="1" parent="1">
          <mxGeometry x="820" y="400" width="20" height="40" as="geometry" />
        </mxCell>
        <mxCell id="vcLzqb1B1sTBKDjQmZa7-58" value="&lt;font color=&quot;#ffffff&quot;&gt;s&lt;/font&gt;" style="text;html=1;strokeColor=#ae4132;fillColor=#fad9d5;align=center;verticalAlign=middle;whiteSpace=wrap;rounded=0;" vertex="1" parent="1">
          <mxGeometry x="840" y="400" width="20" height="40" as="geometry" />
        </mxCell>
        <mxCell id="vcLzqb1B1sTBKDjQmZa7-59" value="&lt;font color=&quot;#ffffff&quot;&gt;s&lt;/font&gt;" style="text;html=1;strokeColor=#ae4132;fillColor=#fad9d5;align=center;verticalAlign=middle;whiteSpace=wrap;rounded=0;" vertex="1" parent="1">
          <mxGeometry x="860" y="400" width="20" height="40" as="geometry" />
        </mxCell>
        <mxCell id="vcLzqb1B1sTBKDjQmZa7-60" value="&lt;font color=&quot;#ffffff&quot;&gt;t&lt;/font&gt;" style="text;html=1;strokeColor=#56517e;fillColor=#d0cee2;align=center;verticalAlign=middle;whiteSpace=wrap;rounded=0;" vertex="1" parent="1">
          <mxGeometry x="880" y="400" width="20" height="40" as="geometry" />
        </mxCell>
        <mxCell id="vcLzqb1B1sTBKDjQmZa7-61" value="&lt;font color=&quot;#ffffff&quot;&gt;t&lt;/font&gt;" style="text;html=1;strokeColor=#56517e;fillColor=#d0cee2;align=center;verticalAlign=middle;whiteSpace=wrap;rounded=0;" vertex="1" parent="1">
          <mxGeometry x="900" y="400" width="20" height="40" as="geometry" />
        </mxCell>
        <mxCell id="vcLzqb1B1sTBKDjQmZa7-62" value="&lt;font color=&quot;#ffffff&quot;&gt;t&lt;/font&gt;" style="text;html=1;strokeColor=#56517e;fillColor=#d0cee2;align=center;verticalAlign=middle;whiteSpace=wrap;rounded=0;" vertex="1" parent="1">
          <mxGeometry x="920" y="400" width="20" height="40" as="geometry" />
        </mxCell>
        <mxCell id="vcLzqb1B1sTBKDjQmZa7-63" value="&lt;font color=&quot;#ffffff&quot;&gt;t&lt;/font&gt;" style="text;html=1;strokeColor=#56517e;fillColor=#d0cee2;align=center;verticalAlign=middle;whiteSpace=wrap;rounded=0;" vertex="1" parent="1">
          <mxGeometry x="940" y="400" width="20" height="40" as="geometry" />
        </mxCell>
        <mxCell id="vcLzqb1B1sTBKDjQmZa7-64" value="&lt;font color=&quot;#ffffff&quot;&gt;t&lt;/font&gt;" style="text;html=1;strokeColor=#56517e;fillColor=#d0cee2;align=center;verticalAlign=middle;whiteSpace=wrap;rounded=0;" vertex="1" parent="1">
          <mxGeometry x="960" y="400" width="20" height="40" as="geometry" />
        </mxCell>
        <mxCell id="vcLzqb1B1sTBKDjQmZa7-65" value="&lt;font color=&quot;#ffffff&quot;&gt;t&lt;/font&gt;" style="text;html=1;strokeColor=#56517e;fillColor=#d0cee2;align=center;verticalAlign=middle;whiteSpace=wrap;rounded=0;" vertex="1" parent="1">
          <mxGeometry x="980" y="400" width="20" height="40" as="geometry" />
        </mxCell>
        <mxCell id="vcLzqb1B1sTBKDjQmZa7-66" value="&lt;font color=&quot;#ffffff&quot;&gt;t&lt;/font&gt;" style="text;html=1;strokeColor=#56517e;fillColor=#d0cee2;align=center;verticalAlign=middle;whiteSpace=wrap;rounded=0;" vertex="1" parent="1">
          <mxGeometry x="1000" y="400" width="20" height="40" as="geometry" />
        </mxCell>
        <mxCell id="vcLzqb1B1sTBKDjQmZa7-67" value="&lt;font color=&quot;#ffffff&quot;&gt;t&lt;/font&gt;" style="text;html=1;strokeColor=#56517e;fillColor=#d0cee2;align=center;verticalAlign=middle;whiteSpace=wrap;rounded=0;" vertex="1" parent="1">
          <mxGeometry x="1020" y="400" width="20" height="40" as="geometry" />
        </mxCell>
        <mxCell id="vcLzqb1B1sTBKDjQmZa7-69" value="" style="endArrow=classic;startArrow=classic;html=1;rounded=0;" edge="1" parent="1">
          <mxGeometry width="50" height="50" relative="1" as="geometry">
            <mxPoint x="400" y="450" as="sourcePoint" />
            <mxPoint x="1040" y="450" as="targetPoint" />
          </mxGeometry>
        </mxCell>
        <mxCell id="vcLzqb1B1sTBKDjQmZa7-70" value="prevlen" style="edgeLabel;html=1;align=center;verticalAlign=middle;resizable=0;points=[];" vertex="1" connectable="0" parent="vcLzqb1B1sTBKDjQmZa7-69">
          <mxGeometry x="-0.002" relative="1" as="geometry">
            <mxPoint as="offset" />
          </mxGeometry>
        </mxCell>
        <mxCell id="vcLzqb1B1sTBKDjQmZa7-71" value="0" style="text;html=1;strokeColor=#d6b656;fillColor=#fff2cc;align=center;verticalAlign=middle;whiteSpace=wrap;rounded=0;" vertex="1" parent="1">
          <mxGeometry x="240" y="480" width="20" height="40" as="geometry" />
        </mxCell>
        <mxCell id="vcLzqb1B1sTBKDjQmZa7-72" value="0" style="text;html=1;strokeColor=#d6b656;fillColor=#fff2cc;align=center;verticalAlign=middle;whiteSpace=wrap;rounded=0;" vertex="1" parent="1">
          <mxGeometry x="260" y="480" width="20" height="40" as="geometry" />
        </mxCell>
        <mxCell id="vcLzqb1B1sTBKDjQmZa7-73" value="&lt;font color=&quot;#ffffff&quot;&gt;p&lt;/font&gt;" style="text;html=1;strokeColor=#10739e;fillColor=#b1ddf0;align=center;verticalAlign=middle;whiteSpace=wrap;rounded=0;" vertex="1" parent="1">
          <mxGeometry x="280" y="480" width="20" height="40" as="geometry" />
        </mxCell>
        <mxCell id="vcLzqb1B1sTBKDjQmZa7-74" value="&lt;font color=&quot;#ffffff&quot;&gt;p&lt;/font&gt;" style="text;html=1;strokeColor=#10739e;fillColor=#b1ddf0;align=center;verticalAlign=middle;whiteSpace=wrap;rounded=0;" vertex="1" parent="1">
          <mxGeometry x="300" y="480" width="20" height="40" as="geometry" />
        </mxCell>
        <mxCell id="vcLzqb1B1sTBKDjQmZa7-75" value="&lt;font color=&quot;#ffffff&quot;&gt;p&lt;/font&gt;" style="text;html=1;strokeColor=#10739e;fillColor=#b1ddf0;align=center;verticalAlign=middle;whiteSpace=wrap;rounded=0;" vertex="1" parent="1">
          <mxGeometry x="320" y="480" width="20" height="40" as="geometry" />
        </mxCell>
        <mxCell id="vcLzqb1B1sTBKDjQmZa7-76" value="&lt;font color=&quot;#ffffff&quot;&gt;p&lt;/font&gt;" style="text;html=1;strokeColor=#10739e;fillColor=#b1ddf0;align=center;verticalAlign=middle;whiteSpace=wrap;rounded=0;" vertex="1" parent="1">
          <mxGeometry x="340" y="480" width="20" height="40" as="geometry" />
        </mxCell>
        <mxCell id="vcLzqb1B1sTBKDjQmZa7-77" value="&lt;font color=&quot;#ffffff&quot;&gt;p&lt;/font&gt;" style="text;html=1;strokeColor=#10739e;fillColor=#b1ddf0;align=center;verticalAlign=middle;whiteSpace=wrap;rounded=0;" vertex="1" parent="1">
          <mxGeometry x="360" y="480" width="20" height="40" as="geometry" />
        </mxCell>
        <mxCell id="vcLzqb1B1sTBKDjQmZa7-78" value="&lt;font color=&quot;#ffffff&quot;&gt;p&lt;/font&gt;" style="text;html=1;strokeColor=#10739e;fillColor=#b1ddf0;align=center;verticalAlign=middle;whiteSpace=wrap;rounded=0;" vertex="1" parent="1">
          <mxGeometry x="380" y="480" width="20" height="40" as="geometry" />
        </mxCell>
        <mxCell id="vcLzqb1B1sTBKDjQmZa7-79" value="" style="endArrow=classic;startArrow=classic;html=1;rounded=0;" edge="1" parent="1">
          <mxGeometry width="50" height="50" relative="1" as="geometry">
            <mxPoint x="280" y="530" as="sourcePoint" />
            <mxPoint x="400" y="530" as="targetPoint" />
          </mxGeometry>
        </mxCell>
        <mxCell id="vcLzqb1B1sTBKDjQmZa7-80" value="itselflen" style="edgeLabel;html=1;align=center;verticalAlign=middle;resizable=0;points=[];" vertex="1" connectable="0" parent="vcLzqb1B1sTBKDjQmZa7-79">
          <mxGeometry y="-1" relative="1" as="geometry">
            <mxPoint as="offset" />
          </mxGeometry>
        </mxCell>
        <mxCell id="vcLzqb1B1sTBKDjQmZa7-92" value="1" style="text;html=1;strokeColor=#d6b656;fillColor=#fff2cc;align=center;verticalAlign=middle;whiteSpace=wrap;rounded=0;" vertex="1" parent="1">
          <mxGeometry x="240" y="640" width="20" height="40" as="geometry" />
        </mxCell>
        <mxCell id="vcLzqb1B1sTBKDjQmZa7-93" value="0" style="text;html=1;strokeColor=#d6b656;fillColor=#fff2cc;align=center;verticalAlign=middle;whiteSpace=wrap;rounded=0;" vertex="1" parent="1">
          <mxGeometry x="260" y="640" width="20" height="40" as="geometry" />
        </mxCell>
        <mxCell id="vcLzqb1B1sTBKDjQmZa7-94" value="&lt;font color=&quot;#ffffff&quot;&gt;0&lt;/font&gt;" style="text;html=1;strokeColor=#10739e;fillColor=#b1ddf0;align=center;verticalAlign=middle;whiteSpace=wrap;rounded=0;" vertex="1" parent="1">
          <mxGeometry x="280" y="640" width="20" height="40" as="geometry" />
        </mxCell>
        <mxCell id="vcLzqb1B1sTBKDjQmZa7-95" value="&lt;font color=&quot;#ffffff&quot;&gt;0&lt;/font&gt;" style="text;html=1;strokeColor=#10739e;fillColor=#b1ddf0;align=center;verticalAlign=middle;whiteSpace=wrap;rounded=0;" vertex="1" parent="1">
          <mxGeometry x="300" y="640" width="20" height="40" as="geometry" />
        </mxCell>
        <mxCell id="vcLzqb1B1sTBKDjQmZa7-96" value="&lt;font color=&quot;#ffffff&quot;&gt;0&lt;/font&gt;" style="text;html=1;strokeColor=#10739e;fillColor=#b1ddf0;align=center;verticalAlign=middle;whiteSpace=wrap;rounded=0;" vertex="1" parent="1">
          <mxGeometry x="320" y="640" width="20" height="40" as="geometry" />
        </mxCell>
        <mxCell id="vcLzqb1B1sTBKDjQmZa7-97" value="&lt;font color=&quot;#ffffff&quot;&gt;0&lt;/font&gt;" style="text;html=1;strokeColor=#10739e;fillColor=#b1ddf0;align=center;verticalAlign=middle;whiteSpace=wrap;rounded=0;" vertex="1" parent="1">
          <mxGeometry x="340" y="640" width="20" height="40" as="geometry" />
        </mxCell>
        <mxCell id="vcLzqb1B1sTBKDjQmZa7-98" value="&lt;font color=&quot;#ffffff&quot;&gt;0&lt;/font&gt;" style="text;html=1;strokeColor=#10739e;fillColor=#b1ddf0;align=center;verticalAlign=middle;whiteSpace=wrap;rounded=0;" vertex="1" parent="1">
          <mxGeometry x="360" y="640" width="20" height="40" as="geometry" />
        </mxCell>
        <mxCell id="vcLzqb1B1sTBKDjQmZa7-99" value="&lt;font color=&quot;#ffffff&quot;&gt;0&lt;/font&gt;" style="text;html=1;strokeColor=#10739e;fillColor=#b1ddf0;align=center;verticalAlign=middle;whiteSpace=wrap;rounded=0;" vertex="1" parent="1">
          <mxGeometry x="380" y="640" width="20" height="40" as="geometry" />
        </mxCell>
        <mxCell id="vcLzqb1B1sTBKDjQmZa7-100" value="" style="endArrow=classic;startArrow=classic;html=1;rounded=0;" edge="1" parent="1">
          <mxGeometry width="50" height="50" relative="1" as="geometry">
            <mxPoint x="400" y="690" as="sourcePoint" />
            <mxPoint x="1041.4546342329545" y="690" as="targetPoint" />
          </mxGeometry>
        </mxCell>
        <mxCell id="vcLzqb1B1sTBKDjQmZa7-101" value="itselflen" style="edgeLabel;html=1;align=center;verticalAlign=middle;resizable=0;points=[];" vertex="1" connectable="0" parent="vcLzqb1B1sTBKDjQmZa7-100">
          <mxGeometry y="-1" relative="1" as="geometry">
            <mxPoint as="offset" />
          </mxGeometry>
        </mxCell>
        <mxCell id="vcLzqb1B1sTBKDjQmZa7-102" value="" style="endArrow=classic;startArrow=classic;html=1;rounded=0;" edge="1" parent="1">
          <mxGeometry width="50" height="50" relative="1" as="geometry">
            <mxPoint x="240" y="530" as="sourcePoint" />
            <mxPoint x="280" y="530" as="targetPoint" />
          </mxGeometry>
        </mxCell>
        <mxCell id="vcLzqb1B1sTBKDjQmZa7-103" value="&lt;font style=&quot;font-size: 11px;&quot;&gt;sign&lt;/font&gt;" style="edgeLabel;html=1;align=center;verticalAlign=middle;resizable=0;points=[];" vertex="1" connectable="0" parent="vcLzqb1B1sTBKDjQmZa7-102">
          <mxGeometry x="-0.0487" relative="1" as="geometry">
            <mxPoint as="offset" />
          </mxGeometry>
        </mxCell>
        <mxCell id="vcLzqb1B1sTBKDjQmZa7-104" value="" style="endArrow=classic;startArrow=classic;html=1;rounded=0;" edge="1" parent="1">
          <mxGeometry width="50" height="50" relative="1" as="geometry">
            <mxPoint x="240" y="690" as="sourcePoint" />
            <mxPoint x="280" y="690" as="targetPoint" />
          </mxGeometry>
        </mxCell>
        <mxCell id="vcLzqb1B1sTBKDjQmZa7-105" value="&lt;font style=&quot;font-size: 11px;&quot;&gt;sign&lt;/font&gt;" style="edgeLabel;html=1;align=center;verticalAlign=middle;resizable=0;points=[];" vertex="1" connectable="0" parent="vcLzqb1B1sTBKDjQmZa7-104">
          <mxGeometry x="-0.0487" relative="1" as="geometry">
            <mxPoint as="offset" />
          </mxGeometry>
        </mxCell>
        <mxCell id="vcLzqb1B1sTBKDjQmZa7-106" value="&lt;font color=&quot;#ffffff&quot;&gt;q&lt;/font&gt;" style="text;html=1;strokeColor=#b46504;fillColor=#fad7ac;align=center;verticalAlign=middle;whiteSpace=wrap;rounded=0;" vertex="1" parent="1">
          <mxGeometry x="400" y="640" width="20" height="40" as="geometry" />
        </mxCell>
        <mxCell id="vcLzqb1B1sTBKDjQmZa7-107" value="&lt;font color=&quot;#ffffff&quot;&gt;q&lt;/font&gt;" style="text;html=1;strokeColor=#b46504;fillColor=#fad7ac;align=center;verticalAlign=middle;whiteSpace=wrap;rounded=0;" vertex="1" parent="1">
          <mxGeometry x="420" y="640" width="20" height="40" as="geometry" />
        </mxCell>
        <mxCell id="vcLzqb1B1sTBKDjQmZa7-108" value="&lt;font color=&quot;#ffffff&quot;&gt;q&lt;/font&gt;" style="text;html=1;strokeColor=#b46504;fillColor=#fad7ac;align=center;verticalAlign=middle;whiteSpace=wrap;rounded=0;" vertex="1" parent="1">
          <mxGeometry x="440" y="640" width="20" height="40" as="geometry" />
        </mxCell>
        <mxCell id="vcLzqb1B1sTBKDjQmZa7-109" value="&lt;font color=&quot;#ffffff&quot;&gt;q&lt;/font&gt;" style="text;html=1;strokeColor=#b46504;fillColor=#fad7ac;align=center;verticalAlign=middle;whiteSpace=wrap;rounded=0;" vertex="1" parent="1">
          <mxGeometry x="460" y="640" width="20" height="40" as="geometry" />
        </mxCell>
        <mxCell id="vcLzqb1B1sTBKDjQmZa7-110" value="&lt;font color=&quot;#ffffff&quot;&gt;q&lt;/font&gt;" style="text;html=1;strokeColor=#b46504;fillColor=#fad7ac;align=center;verticalAlign=middle;whiteSpace=wrap;rounded=0;" vertex="1" parent="1">
          <mxGeometry x="480" y="640" width="20" height="40" as="geometry" />
        </mxCell>
        <mxCell id="vcLzqb1B1sTBKDjQmZa7-111" value="&lt;font color=&quot;#ffffff&quot;&gt;q&lt;/font&gt;" style="text;html=1;strokeColor=#b46504;fillColor=#fad7ac;align=center;verticalAlign=middle;whiteSpace=wrap;rounded=0;" vertex="1" parent="1">
          <mxGeometry x="500" y="640" width="20" height="40" as="geometry" />
        </mxCell>
        <mxCell id="vcLzqb1B1sTBKDjQmZa7-112" value="&lt;font color=&quot;#ffffff&quot;&gt;q&lt;/font&gt;" style="text;html=1;strokeColor=#b46504;fillColor=#fad7ac;align=center;verticalAlign=middle;whiteSpace=wrap;rounded=0;" vertex="1" parent="1">
          <mxGeometry x="520" y="640" width="20" height="40" as="geometry" />
        </mxCell>
        <mxCell id="vcLzqb1B1sTBKDjQmZa7-113" value="&lt;font color=&quot;#ffffff&quot;&gt;q&lt;/font&gt;" style="text;html=1;strokeColor=#b46504;fillColor=#fad7ac;align=center;verticalAlign=middle;whiteSpace=wrap;rounded=0;" vertex="1" parent="1">
          <mxGeometry x="540" y="640" width="20" height="40" as="geometry" />
        </mxCell>
        <mxCell id="vcLzqb1B1sTBKDjQmZa7-114" value="&lt;font color=&quot;#ffffff&quot;&gt;r&lt;/font&gt;" style="text;html=1;strokeColor=#0e8088;fillColor=#b0e3e6;align=center;verticalAlign=middle;whiteSpace=wrap;rounded=0;" vertex="1" parent="1">
          <mxGeometry x="560" y="640" width="20" height="40" as="geometry" />
        </mxCell>
        <mxCell id="vcLzqb1B1sTBKDjQmZa7-115" value="&lt;font color=&quot;#ffffff&quot;&gt;r&lt;/font&gt;" style="text;html=1;strokeColor=#0e8088;fillColor=#b0e3e6;align=center;verticalAlign=middle;whiteSpace=wrap;rounded=0;" vertex="1" parent="1">
          <mxGeometry x="580" y="640" width="20" height="40" as="geometry" />
        </mxCell>
        <mxCell id="vcLzqb1B1sTBKDjQmZa7-116" value="&lt;font color=&quot;#ffffff&quot;&gt;r&lt;/font&gt;" style="text;html=1;strokeColor=#0e8088;fillColor=#b0e3e6;align=center;verticalAlign=middle;whiteSpace=wrap;rounded=0;" vertex="1" parent="1">
          <mxGeometry x="600" y="640" width="20" height="40" as="geometry" />
        </mxCell>
        <mxCell id="vcLzqb1B1sTBKDjQmZa7-117" value="&lt;font color=&quot;#ffffff&quot;&gt;r&lt;/font&gt;" style="text;html=1;strokeColor=#0e8088;fillColor=#b0e3e6;align=center;verticalAlign=middle;whiteSpace=wrap;rounded=0;" vertex="1" parent="1">
          <mxGeometry x="620" y="640" width="20" height="40" as="geometry" />
        </mxCell>
        <mxCell id="vcLzqb1B1sTBKDjQmZa7-118" value="&lt;font color=&quot;#ffffff&quot;&gt;r&lt;/font&gt;" style="text;html=1;strokeColor=#0e8088;fillColor=#b0e3e6;align=center;verticalAlign=middle;whiteSpace=wrap;rounded=0;" vertex="1" parent="1">
          <mxGeometry x="640" y="640" width="20" height="40" as="geometry" />
        </mxCell>
        <mxCell id="vcLzqb1B1sTBKDjQmZa7-119" value="&lt;font color=&quot;#ffffff&quot;&gt;r&lt;/font&gt;" style="text;html=1;strokeColor=#0e8088;fillColor=#b0e3e6;align=center;verticalAlign=middle;whiteSpace=wrap;rounded=0;" vertex="1" parent="1">
          <mxGeometry x="660" y="640" width="20" height="40" as="geometry" />
        </mxCell>
        <mxCell id="vcLzqb1B1sTBKDjQmZa7-120" value="&lt;font color=&quot;#ffffff&quot;&gt;r&lt;/font&gt;" style="text;html=1;strokeColor=#0e8088;fillColor=#b0e3e6;align=center;verticalAlign=middle;whiteSpace=wrap;rounded=0;" vertex="1" parent="1">
          <mxGeometry x="680" y="640" width="20" height="40" as="geometry" />
        </mxCell>
        <mxCell id="vcLzqb1B1sTBKDjQmZa7-121" value="&lt;font color=&quot;#ffffff&quot;&gt;r&lt;/font&gt;" style="text;html=1;strokeColor=#0e8088;fillColor=#b0e3e6;align=center;verticalAlign=middle;whiteSpace=wrap;rounded=0;" vertex="1" parent="1">
          <mxGeometry x="700" y="640" width="20" height="40" as="geometry" />
        </mxCell>
        <mxCell id="vcLzqb1B1sTBKDjQmZa7-122" value="&lt;font color=&quot;#ffffff&quot;&gt;s&lt;/font&gt;" style="text;html=1;strokeColor=#ae4132;fillColor=#fad9d5;align=center;verticalAlign=middle;whiteSpace=wrap;rounded=0;" vertex="1" parent="1">
          <mxGeometry x="720" y="640" width="20" height="40" as="geometry" />
        </mxCell>
        <mxCell id="vcLzqb1B1sTBKDjQmZa7-123" value="&lt;font color=&quot;#ffffff&quot;&gt;s&lt;/font&gt;" style="text;html=1;strokeColor=#ae4132;fillColor=#fad9d5;align=center;verticalAlign=middle;whiteSpace=wrap;rounded=0;" vertex="1" parent="1">
          <mxGeometry x="740" y="640" width="20" height="40" as="geometry" />
        </mxCell>
        <mxCell id="vcLzqb1B1sTBKDjQmZa7-124" value="&lt;font color=&quot;#ffffff&quot;&gt;s&lt;/font&gt;" style="text;html=1;strokeColor=#ae4132;fillColor=#fad9d5;align=center;verticalAlign=middle;whiteSpace=wrap;rounded=0;" vertex="1" parent="1">
          <mxGeometry x="760" y="640" width="20" height="40" as="geometry" />
        </mxCell>
        <mxCell id="vcLzqb1B1sTBKDjQmZa7-125" value="&lt;font color=&quot;#ffffff&quot;&gt;s&lt;/font&gt;" style="text;html=1;strokeColor=#ae4132;fillColor=#fad9d5;align=center;verticalAlign=middle;whiteSpace=wrap;rounded=0;" vertex="1" parent="1">
          <mxGeometry x="780" y="640" width="20" height="40" as="geometry" />
        </mxCell>
        <mxCell id="vcLzqb1B1sTBKDjQmZa7-126" value="&lt;font color=&quot;#ffffff&quot;&gt;s&lt;/font&gt;" style="text;html=1;strokeColor=#ae4132;fillColor=#fad9d5;align=center;verticalAlign=middle;whiteSpace=wrap;rounded=0;" vertex="1" parent="1">
          <mxGeometry x="800" y="640" width="20" height="40" as="geometry" />
        </mxCell>
        <mxCell id="vcLzqb1B1sTBKDjQmZa7-127" value="&lt;font color=&quot;#ffffff&quot;&gt;s&lt;/font&gt;" style="text;html=1;strokeColor=#ae4132;fillColor=#fad9d5;align=center;verticalAlign=middle;whiteSpace=wrap;rounded=0;" vertex="1" parent="1">
          <mxGeometry x="820" y="640" width="20" height="40" as="geometry" />
        </mxCell>
        <mxCell id="vcLzqb1B1sTBKDjQmZa7-128" value="&lt;font color=&quot;#ffffff&quot;&gt;s&lt;/font&gt;" style="text;html=1;strokeColor=#ae4132;fillColor=#fad9d5;align=center;verticalAlign=middle;whiteSpace=wrap;rounded=0;" vertex="1" parent="1">
          <mxGeometry x="840" y="640" width="20" height="40" as="geometry" />
        </mxCell>
        <mxCell id="vcLzqb1B1sTBKDjQmZa7-129" value="&lt;font color=&quot;#ffffff&quot;&gt;s&lt;/font&gt;" style="text;html=1;strokeColor=#ae4132;fillColor=#fad9d5;align=center;verticalAlign=middle;whiteSpace=wrap;rounded=0;" vertex="1" parent="1">
          <mxGeometry x="860" y="640" width="20" height="40" as="geometry" />
        </mxCell>
        <mxCell id="vcLzqb1B1sTBKDjQmZa7-130" value="&lt;font color=&quot;#ffffff&quot;&gt;t&lt;/font&gt;" style="text;html=1;strokeColor=#56517e;fillColor=#d0cee2;align=center;verticalAlign=middle;whiteSpace=wrap;rounded=0;" vertex="1" parent="1">
          <mxGeometry x="880" y="640" width="20" height="40" as="geometry" />
        </mxCell>
        <mxCell id="vcLzqb1B1sTBKDjQmZa7-131" value="&lt;font color=&quot;#ffffff&quot;&gt;t&lt;/font&gt;" style="text;html=1;strokeColor=#56517e;fillColor=#d0cee2;align=center;verticalAlign=middle;whiteSpace=wrap;rounded=0;" vertex="1" parent="1">
          <mxGeometry x="900" y="640" width="20" height="40" as="geometry" />
        </mxCell>
        <mxCell id="vcLzqb1B1sTBKDjQmZa7-132" value="&lt;font color=&quot;#ffffff&quot;&gt;t&lt;/font&gt;" style="text;html=1;strokeColor=#56517e;fillColor=#d0cee2;align=center;verticalAlign=middle;whiteSpace=wrap;rounded=0;" vertex="1" parent="1">
          <mxGeometry x="920" y="640" width="20" height="40" as="geometry" />
        </mxCell>
        <mxCell id="vcLzqb1B1sTBKDjQmZa7-133" value="&lt;font color=&quot;#ffffff&quot;&gt;t&lt;/font&gt;" style="text;html=1;strokeColor=#56517e;fillColor=#d0cee2;align=center;verticalAlign=middle;whiteSpace=wrap;rounded=0;" vertex="1" parent="1">
          <mxGeometry x="940" y="640" width="20" height="40" as="geometry" />
        </mxCell>
        <mxCell id="vcLzqb1B1sTBKDjQmZa7-134" value="&lt;font color=&quot;#ffffff&quot;&gt;t&lt;/font&gt;" style="text;html=1;strokeColor=#56517e;fillColor=#d0cee2;align=center;verticalAlign=middle;whiteSpace=wrap;rounded=0;" vertex="1" parent="1">
          <mxGeometry x="960" y="640" width="20" height="40" as="geometry" />
        </mxCell>
        <mxCell id="vcLzqb1B1sTBKDjQmZa7-135" value="&lt;font color=&quot;#ffffff&quot;&gt;t&lt;/font&gt;" style="text;html=1;strokeColor=#56517e;fillColor=#d0cee2;align=center;verticalAlign=middle;whiteSpace=wrap;rounded=0;" vertex="1" parent="1">
          <mxGeometry x="980" y="640" width="20" height="40" as="geometry" />
        </mxCell>
        <mxCell id="vcLzqb1B1sTBKDjQmZa7-136" value="&lt;font color=&quot;#ffffff&quot;&gt;t&lt;/font&gt;" style="text;html=1;strokeColor=#56517e;fillColor=#d0cee2;align=center;verticalAlign=middle;whiteSpace=wrap;rounded=0;" vertex="1" parent="1">
          <mxGeometry x="1000" y="640" width="20" height="40" as="geometry" />
        </mxCell>
        <mxCell id="vcLzqb1B1sTBKDjQmZa7-137" value="&lt;font color=&quot;#ffffff&quot;&gt;t&lt;/font&gt;" style="text;html=1;strokeColor=#56517e;fillColor=#d0cee2;align=center;verticalAlign=middle;whiteSpace=wrap;rounded=0;" vertex="1" parent="1">
          <mxGeometry x="1020" y="640" width="20" height="40" as="geometry" />
        </mxCell>
        <mxCell id="vcLzqb1B1sTBKDjQmZa7-139" value="0" style="text;html=1;strokeColor=#d6b656;fillColor=#fff2cc;align=center;verticalAlign=middle;whiteSpace=wrap;rounded=0;" vertex="1" parent="1">
          <mxGeometry x="240" y="560" width="20" height="40" as="geometry" />
        </mxCell>
        <mxCell id="vcLzqb1B1sTBKDjQmZa7-140" value="1" style="text;html=1;strokeColor=#d6b656;fillColor=#fff2cc;align=center;verticalAlign=middle;whiteSpace=wrap;rounded=0;" vertex="1" parent="1">
          <mxGeometry x="260" y="560" width="20" height="40" as="geometry" />
        </mxCell>
        <mxCell id="vcLzqb1B1sTBKDjQmZa7-141" value="&lt;font color=&quot;#ffffff&quot;&gt;p&lt;/font&gt;" style="text;html=1;strokeColor=#10739e;fillColor=#b1ddf0;align=center;verticalAlign=middle;whiteSpace=wrap;rounded=0;" vertex="1" parent="1">
          <mxGeometry x="280" y="560" width="20" height="40" as="geometry" />
        </mxCell>
        <mxCell id="vcLzqb1B1sTBKDjQmZa7-142" value="&lt;font color=&quot;#ffffff&quot;&gt;p&lt;/font&gt;" style="text;html=1;strokeColor=#10739e;fillColor=#b1ddf0;align=center;verticalAlign=middle;whiteSpace=wrap;rounded=0;" vertex="1" parent="1">
          <mxGeometry x="300" y="560" width="20" height="40" as="geometry" />
        </mxCell>
        <mxCell id="vcLzqb1B1sTBKDjQmZa7-143" value="&lt;font color=&quot;#ffffff&quot;&gt;p&lt;/font&gt;" style="text;html=1;strokeColor=#10739e;fillColor=#b1ddf0;align=center;verticalAlign=middle;whiteSpace=wrap;rounded=0;" vertex="1" parent="1">
          <mxGeometry x="320" y="560" width="20" height="40" as="geometry" />
        </mxCell>
        <mxCell id="vcLzqb1B1sTBKDjQmZa7-144" value="&lt;font color=&quot;#ffffff&quot;&gt;p&lt;/font&gt;" style="text;html=1;strokeColor=#10739e;fillColor=#b1ddf0;align=center;verticalAlign=middle;whiteSpace=wrap;rounded=0;" vertex="1" parent="1">
          <mxGeometry x="340" y="560" width="20" height="40" as="geometry" />
        </mxCell>
        <mxCell id="vcLzqb1B1sTBKDjQmZa7-145" value="&lt;font color=&quot;#ffffff&quot;&gt;p&lt;/font&gt;" style="text;html=1;strokeColor=#10739e;fillColor=#b1ddf0;align=center;verticalAlign=middle;whiteSpace=wrap;rounded=0;" vertex="1" parent="1">
          <mxGeometry x="360" y="560" width="20" height="40" as="geometry" />
        </mxCell>
        <mxCell id="vcLzqb1B1sTBKDjQmZa7-146" value="&lt;font color=&quot;#ffffff&quot;&gt;p&lt;/font&gt;" style="text;html=1;strokeColor=#10739e;fillColor=#b1ddf0;align=center;verticalAlign=middle;whiteSpace=wrap;rounded=0;" vertex="1" parent="1">
          <mxGeometry x="380" y="560" width="20" height="40" as="geometry" />
        </mxCell>
        <mxCell id="vcLzqb1B1sTBKDjQmZa7-147" value="" style="endArrow=classic;startArrow=classic;html=1;rounded=0;" edge="1" parent="1">
          <mxGeometry width="50" height="50" relative="1" as="geometry">
            <mxPoint x="280" y="610" as="sourcePoint" />
            <mxPoint x="560" y="610" as="targetPoint" />
          </mxGeometry>
        </mxCell>
        <mxCell id="vcLzqb1B1sTBKDjQmZa7-148" value="itselflen" style="edgeLabel;html=1;align=center;verticalAlign=middle;resizable=0;points=[];" vertex="1" connectable="0" parent="vcLzqb1B1sTBKDjQmZa7-147">
          <mxGeometry y="-1" relative="1" as="geometry">
            <mxPoint as="offset" />
          </mxGeometry>
        </mxCell>
        <mxCell id="vcLzqb1B1sTBKDjQmZa7-149" value="" style="endArrow=classic;startArrow=classic;html=1;rounded=0;" edge="1" parent="1">
          <mxGeometry width="50" height="50" relative="1" as="geometry">
            <mxPoint x="240" y="610" as="sourcePoint" />
            <mxPoint x="280" y="610" as="targetPoint" />
          </mxGeometry>
        </mxCell>
        <mxCell id="vcLzqb1B1sTBKDjQmZa7-150" value="&lt;font style=&quot;font-size: 11px;&quot;&gt;sign&lt;/font&gt;" style="edgeLabel;html=1;align=center;verticalAlign=middle;resizable=0;points=[];" vertex="1" connectable="0" parent="vcLzqb1B1sTBKDjQmZa7-149">
          <mxGeometry x="-0.0487" relative="1" as="geometry">
            <mxPoint as="offset" />
          </mxGeometry>
        </mxCell>
        <mxCell id="vcLzqb1B1sTBKDjQmZa7-151" value="&lt;font color=&quot;#ffffff&quot;&gt;q&lt;/font&gt;" style="text;html=1;strokeColor=#b46504;fillColor=#fad7ac;align=center;verticalAlign=middle;whiteSpace=wrap;rounded=0;" vertex="1" parent="1">
          <mxGeometry x="400" y="560" width="20" height="40" as="geometry" />
        </mxCell>
        <mxCell id="vcLzqb1B1sTBKDjQmZa7-152" value="&lt;font color=&quot;#ffffff&quot;&gt;q&lt;/font&gt;" style="text;html=1;strokeColor=#b46504;fillColor=#fad7ac;align=center;verticalAlign=middle;whiteSpace=wrap;rounded=0;" vertex="1" parent="1">
          <mxGeometry x="420" y="560" width="20" height="40" as="geometry" />
        </mxCell>
        <mxCell id="vcLzqb1B1sTBKDjQmZa7-153" value="&lt;font color=&quot;#ffffff&quot;&gt;q&lt;/font&gt;" style="text;html=1;strokeColor=#b46504;fillColor=#fad7ac;align=center;verticalAlign=middle;whiteSpace=wrap;rounded=0;" vertex="1" parent="1">
          <mxGeometry x="440" y="560" width="20" height="40" as="geometry" />
        </mxCell>
        <mxCell id="vcLzqb1B1sTBKDjQmZa7-154" value="&lt;font color=&quot;#ffffff&quot;&gt;q&lt;/font&gt;" style="text;html=1;strokeColor=#b46504;fillColor=#fad7ac;align=center;verticalAlign=middle;whiteSpace=wrap;rounded=0;" vertex="1" parent="1">
          <mxGeometry x="460" y="560" width="20" height="40" as="geometry" />
        </mxCell>
        <mxCell id="vcLzqb1B1sTBKDjQmZa7-155" value="&lt;font color=&quot;#ffffff&quot;&gt;q&lt;/font&gt;" style="text;html=1;strokeColor=#b46504;fillColor=#fad7ac;align=center;verticalAlign=middle;whiteSpace=wrap;rounded=0;" vertex="1" parent="1">
          <mxGeometry x="480" y="560" width="20" height="40" as="geometry" />
        </mxCell>
        <mxCell id="vcLzqb1B1sTBKDjQmZa7-156" value="&lt;font color=&quot;#ffffff&quot;&gt;q&lt;/font&gt;" style="text;html=1;strokeColor=#b46504;fillColor=#fad7ac;align=center;verticalAlign=middle;whiteSpace=wrap;rounded=0;" vertex="1" parent="1">
          <mxGeometry x="500" y="560" width="20" height="40" as="geometry" />
        </mxCell>
        <mxCell id="vcLzqb1B1sTBKDjQmZa7-157" value="&lt;font color=&quot;#ffffff&quot;&gt;q&lt;/font&gt;" style="text;html=1;strokeColor=#b46504;fillColor=#fad7ac;align=center;verticalAlign=middle;whiteSpace=wrap;rounded=0;" vertex="1" parent="1">
          <mxGeometry x="520" y="560" width="20" height="40" as="geometry" />
        </mxCell>
        <mxCell id="vcLzqb1B1sTBKDjQmZa7-158" value="&lt;font color=&quot;#ffffff&quot;&gt;q&lt;/font&gt;" style="text;html=1;strokeColor=#b46504;fillColor=#fad7ac;align=center;verticalAlign=middle;whiteSpace=wrap;rounded=0;" vertex="1" parent="1">
          <mxGeometry x="540" y="560" width="20" height="40" as="geometry" />
        </mxCell>
      </root>
    </mxGraphModel>
  </diagram>
</mxfile>
